# xmcd CD database file
#
# Track frame offsets:
#	150
#	16077
#	29787
#	45169
#	62163
#	78215
#	95573
#	112868
#	128710
#	143675
#	163589
#	180646
#	194708
#	212926
#	228628
#	246863
#	259917
#	276115
#	291501
#	309118
#	324015
#
# Disc length: 4507 seconds
#
# Revision: 1
# Processed by: cddbd v1.5.2PL0 Copyright (c) Steve Scherf et al.
# Submitted via: CDex 1.70beta2
#
DISCID=27119915
DTITLE=Various Artist - NU COUNTRY TRAXX 209
DYEAR=2016
DGENRE=Country
TTITLE0=Kenny Cheney and Pink - Setting The World On Fire
TTITLE1=Frankie Ballard - Cigarette
TTITLE2=Carrie Underwood - Dirty Laundry
TTITLE3=Florida Georgia Line - May We All
TTITLE4=Miranda Lambert - Vice
TTITLE5=Band Perry - Comeback Kid
TTITLE6=Keith Urban - Blue Aint Your Color
TTITLE7=Chris Lane - For Her
TTITLE8=Vince Gill - Me And My Girl
TTITLE9=Ronnie Dunn and Kix Brooks - Damn Drunk
TTITLE10=Luke Bryan - Move
TTITLE11=Brantley Gilbert - The Weekend
TTITLE12=Aaron Lewis - That Aint Country
TTITLE13=Adam Craig - Reckon
TTITLE14=Sarah Dunn Band - Dirty
TTITLE15=Denny Strickland - Get A Grip
TTITLE16=Brandy Clark - Love Can Go To Hell
TTITLE17=Eric Church ft. Rhiannon Giddens
TTITLE18=Billy Ray Cyrus - Thin Line
TTITLE19=Darryl Worley - Rain Maker
TTITLE20=Southern Halo - Rewind
EXTD=YEAR: 2016
EXTT0=
EXTT1=
EXTT2=
EXTT3=
EXTT4=
EXTT5=
EXTT6=
EXTT7=
EXTT8=
EXTT9=
EXTT10=
EXTT11=
EXTT12=
EXTT13=
EXTT14=
EXTT15=
EXTT16=
EXTT17=
EXTT18=
EXTT19=
EXTT20=
PLAYORDER=
